<svg width="145" height="145" viewBox="0 0 145 145" fill="none" xmlns="http://www.w3.org/2000/svg">
<path d="M86.5574 32.3823L90.2784 32.2013C87.6984 37.2626 85.093 42.311 82.4624 47.3463L80.8074 50.5703C81.2494 44.6373 81.0184 38.5443 81.2284 32.5843L86.5574 32.3823Z" fill="#3D76AC"/>
<path d="M89.6813 127.304C95.9323 128.941 101.65 131.816 107.409 134.669L102.572 136.959C98.2703 138.881 93.8133 140.414 89.3243 141.829C89.0843 136.94 89.2393 132.177 89.6813 127.304Z" fill="#3D76AC"/>
<path d="M82.6253 128.022C83.1143 127.981 83.6233 128.023 84.1153 128.037C84.4263 128.586 83.9613 141.408 84.1883 143.771C81.9023 144.073 78.8143 144.799 76.5693 144.335L76.3023 143.698C75.0113 138.817 73.7373 133.941 72.1733 129.138C75.65 128.7 79.134 128.328 82.6253 128.022Z" fill="#3D76AC"/>
<path d="M66.0323 130.944C66.1648 130.955 66.2185 130.952 66.3563 131.01C68.7211 132 70.5203 142.207 71.2653 144.849C66.7906 144.225 62.3089 143.929 57.8422 143.166L49.8406 141.502C53.963 136.632 60.3925 133.685 66.0323 130.944Z" fill="#3D76AC"/>
<path d="M27.0018 73.5843C28.0484 73.539 29.0955 73.5166 30.1431 73.5173C30.5496 75.3743 27.1826 81.5353 26.2889 83.5643C19.3642 81.1623 12.2629 81.3473 5.06816 81.8513L0.688862 82.3023C0.275162 80.1593 0.219661 77.9003 0.0578613 75.7233C9.05486 75.3783 18.0302 74.3363 27.0018 73.5843Z" fill="#3D76AC"/>
<path d="M105.564 8.26282C111.754 11.796 117.408 16.0913 123.077 20.3877C119.653 21.9894 116.15 23.4513 112.688 24.9697C108.134 26.5301 103.517 27.7359 98.8174 28.7662C101.245 21.9904 103.494 15.156 105.564 8.26282Z" fill="#3D76AC"/>
<path d="M9.82608 87.0873C14.4141 86.8783 18.8981 87.5383 23.4061 88.2933C19.9211 93.9813 16.0357 99.3843 12.1253 104.782C11.1891 105.897 10.2785 107.035 9.35818 108.163C6.14428 101.506 3.56108 94.9683 1.62378 87.8303C4.34518 87.4863 7.09238 87.3103 9.82608 87.0873Z" fill="#3D76AC"/>
<path d="M73.9102 0C76.7855 0.297933 79.6672 0.502964 82.5552 0.615097C80.4902 10.4187 77.9462 19.4156 76.5122 29.437C74.7162 29.3885 72.9432 29.0983 71.1662 28.8473C68.1056 28.3053 65.1147 27.5499 62.104 26.785C68.2901 18.4511 71.7922 10.1049 73.9102 0Z" fill="#3D76AC"/>
<path d="M87.9783 1.61182C92.1243 2.95152 96.2723 4.35821 100.519 5.34261C98.3273 13.3256 95.6483 21.0855 92.8943 28.8873C92.8433 28.9491 92.7973 29.0142 92.7433 29.0727C91.3213 30.6128 84.1333 29.9663 82.0693 29.9459C82.8063 20.5007 85.7673 10.8269 87.9783 1.61182Z" fill="#3D76AC"/>
<path d="M32.3107 51.2383C32.472 51.3423 32.5749 51.3823 32.6801 51.5493C34.2525 54.0423 32.8451 64.3893 32.1838 67.4273C22.0645 69.0473 11.4758 69.2433 1.24839 69.9653L0.47499 69.7633C-0.76421 67.1123 0.736991 61.4203 1.40229 58.6823C12.1662 57.8643 22.5081 55.8453 32.3107 51.2383Z" fill="#3D76AC"/>
<path d="M17.1541 25.6984C23.8122 31.1897 27.5431 38.0353 31.3605 45.5973C26.3778 48.0043 21.3734 49.7463 16.0354 51.1813C11.7207 52.0923 7.34597 52.5263 2.96387 52.9763C5.69897 42.7013 10.9688 34.2413 17.1541 25.6984Z" fill="#3D76AC"/>
<path d="M31.8806 12.6016C34.2024 13.8931 35.8521 17.7855 37.7874 19.7519C41.9025 23.9332 47.6483 26.8666 52.9164 29.3479C48.8553 33.1353 44.8133 36.8083 40.3347 40.1023L36.0755 42.8273C33.0448 34.3133 27.0385 27.7515 20.9888 21.2726C24.6132 18.3288 28.0216 15.2595 31.8806 12.6016Z" fill="#3D76AC"/>
<path d="M98.2014 104.467C102.182 107.248 105.69 110.866 109.421 113.986C113.784 117.633 118.454 120.855 123.126 124.086C120.094 126.01 117.234 128.771 114.386 131L113.091 131.879C111.074 131.956 104.367 127.647 101.911 126.592C98.3334 125.055 94.7084 124.037 90.9324 123.154C92.8434 116.678 94.5314 110.226 98.2014 104.467Z" fill="#3D76AC"/>
<path d="M64.9856 0.290398L68.5678 0.0682983C66.1163 9.4961 61.7098 17.0086 56.4908 25.1437C53.1184 23.0429 49.5831 21.1368 46.1543 19.1226C42.1799 16.5155 39.4529 13.0549 36.6892 9.2671C45.8401 4.6057 54.8155 1.6809 64.9856 0.290398Z" fill="#3D76AC"/>
<path d="M52.0486 105.906C57.3939 110.081 61.7094 119.586 64.99 125.634C57.0401 128.961 50.6953 133.233 43.8892 138.482C39.4932 138.182 34.3918 133.951 30.8357 131.538C38.7681 123.747 45.2743 114.683 52.0486 105.906Z" fill="#3D76AC"/>
<path d="M72.3164 66.1613L72.6364 66.2183L72.7864 66.7803C68.3053 75.7693 57.8724 88.8243 51.8204 97.2193C48.3481 94.4833 44.9174 91.7953 41.1072 89.5383C38.0101 87.6573 35.0075 86.2733 31.5413 85.2013C33.3734 81.0067 35.1171 76.7757 36.7724 72.5083C48.7159 70.7993 60.5022 68.5923 72.3164 66.1613Z" fill="#3D76AC"/>
<path d="M126.378 24.5121C129.329 26.2194 133.184 33.4293 135.157 36.5243C123.234 43.7003 106.448 49.7213 93.2382 54.3703C90.6622 55.3113 87.9632 56.0513 85.3442 56.8723C90.0322 50.0443 92.4952 41.7733 96.5802 34.5903C107.448 33.5573 116.695 29.2093 126.378 24.5121Z" fill="#3D76AC"/>
<path d="M28.9221 89.9403C36.7126 92.2933 41.7066 97.7003 48.5659 101.441C42.6277 109.555 36.2406 117.299 29.4046 124.672L26.2521 128.22C23.7361 125.951 21.336 123.565 19.0516 121.062C16.7672 118.56 14.6093 115.953 12.5779 113.241C18.5753 105.714 23.7761 98.0593 28.9221 89.9403Z" fill="#3D76AC"/>
<path d="M58.3679 31.4746C64.121 32.7934 69.8563 34.0433 75.6693 35.0783C74.2263 42.9193 75.3373 51.5483 76.1163 59.3903C68.7646 61.4673 61.1069 62.8513 53.6258 64.3733C48.4585 65.1433 43.3038 65.99 38.1617 66.9133C38.8811 60.7633 38.5529 54.4573 37.8503 48.3253C46.1115 44.0713 52.0106 38.0543 58.3679 31.4746Z" fill="#3D76AC"/>
<path d="M78.1422 69.1033C79.8832 72.2563 80.6442 76.1803 81.9782 79.5423C84.8112 86.6843 89.2802 93.4443 94.0322 99.4423C90.6422 107.02 87.6152 114.344 85.5382 122.392C80.7902 122.694 76.1742 123.09 71.4712 123.843L70.6002 123.935C68.6113 122.744 67.0905 117.872 66.0582 115.775C63.4683 110.513 59.4443 105.77 55.875 101.137C63.7161 90.6863 70.7412 79.8413 78.1422 69.1033Z" fill="#3D76AC"/>
<path d="M137.192 41.7633L137.597 41.9073C140.171 44.6493 141.918 53.2933 142.912 57.0263C124.598 63.3343 107.395 78.6533 97.1322 94.8283L93.3272 89.2373C87.6892 82.3333 85.0442 72.0243 82.4812 63.6323C89.2882 60.9493 96.3752 59.2303 103.256 56.7823C114.824 52.6673 126.312 47.4573 137.192 41.7633Z" fill="#3D76AC"/>
<path d="M142.832 62.9463C143.181 62.8253 143.54 62.9883 143.881 63.0853C144.067 63.4473 144.207 63.8073 144.286 64.2083C144.885 67.2333 144.542 71.0313 144.468 74.1193C144.016 92.9133 137.549 104.721 127.124 119.831C122.46 116.683 117.87 113.429 113.355 110.069C108.904 106.553 104.873 102.782 100.902 98.7323C112.383 82.5523 124.133 70.5753 142.832 62.9463Z" fill="#3D76AC"/>
</svg>
