<svg width="644" height="146" viewBox="0 0 644 146" fill="none" xmlns="http://www.w3.org/2000/svg">
<path d="M86.5574 36.2316L90.2784 36.0506C87.6984 41.1119 85.093 46.1603 82.4624 51.1956L80.8074 54.4196C81.2494 48.4866 81.0184 42.3936 81.2284 36.4336L86.5574 36.2316Z" fill="#3D76AC"/>
<path d="M89.6813 129.154C95.9323 130.791 101.65 133.666 107.409 136.519L102.572 138.809C98.2703 140.731 93.8133 142.264 89.3243 143.679C89.0843 138.79 89.2393 134.027 89.6813 129.154Z" fill="#3D76AC"/>
<path d="M82.6253 128.872C83.1143 128.831 83.6233 128.873 84.1153 128.887C84.4263 129.436 83.9613 142.258 84.1883 144.621C81.9023 144.923 78.8143 145.649 76.5693 145.185L76.3023 144.548C75.0113 139.667 73.7373 134.791 72.1733 129.988C75.65 129.55 79.134 129.178 82.6253 128.872Z" fill="#3D76AC"/>
<path d="M66.0323 131.794C66.1648 131.805 66.2185 131.802 66.3563 131.86C68.7211 132.85 70.5203 143.057 71.2653 145.699C66.7906 145.075 62.3089 144.779 57.8422 144.016L49.8406 142.352C53.963 137.482 60.3925 134.535 66.0323 131.794Z" fill="#3D76AC"/>
<path d="M27.0018 74.4336C28.0484 74.3883 29.0955 74.3659 30.1431 74.3666C30.5496 76.2236 27.1826 82.3846 26.2889 84.4136C19.3642 82.0116 12.2629 82.1966 5.06816 82.7006L0.688862 83.1516C0.275162 81.0086 0.219661 78.7496 0.0578613 76.5726C9.05486 76.2276 18.0302 75.1856 27.0018 74.4336Z" fill="#3D76AC"/>
<path d="M105.564 9.11212C111.754 12.6453 117.408 16.9406 123.077 21.237C119.653 22.8387 116.15 24.3006 112.688 25.819C108.134 27.3794 103.517 28.5852 98.8174 29.6155C101.245 22.8397 103.494 16.0053 105.564 9.11212Z" fill="#3D76AC"/>
<path d="M9.82608 87.9366C14.4141 87.7276 18.8981 88.3876 23.4061 89.1426C19.9211 94.8306 16.0357 100.234 12.1253 105.632C11.1891 106.747 10.2785 107.885 9.35818 109.013C6.14428 102.356 3.56108 95.8176 1.62378 88.6796C4.34518 88.3356 7.09238 88.1596 9.82608 87.9366Z" fill="#3D76AC"/>
<path d="M73.9102 0.849304C76.7855 1.14724 79.6672 1.35227 82.5552 1.4644C80.4902 11.268 77.9462 20.2649 76.5122 30.2863C74.7162 30.2378 72.9432 29.9476 71.1662 29.6966C68.1056 29.1546 65.1147 28.3992 62.104 27.6343C68.2901 19.3004 71.7922 10.9542 73.9102 0.849304Z" fill="#3D76AC"/>
<path d="M87.9783 2.46112C92.1243 3.80082 96.2723 5.20752 100.519 6.19192C98.3273 14.1749 95.6483 21.9348 92.8943 29.7366C92.8433 29.7984 92.7973 29.8635 92.7433 29.922C91.3213 31.4621 84.1333 30.8156 82.0693 30.7952C82.8063 21.35 85.7673 11.6762 87.9783 2.46112Z" fill="#3D76AC"/>
<path d="M374.467 29.6498C377.87 29.3762 383.393 28.884 386.165 31.2707C387.744 32.6301 388.317 34.7036 388.462 36.7116C388.65 39.3016 388.801 43.1496 386.945 45.2076C385.181 47.1626 382.427 47.1376 380.003 47.2346C376.066 47.7486 371.915 46.7296 368.094 45.8756C369.185 43.2586 365.679 36.5366 368.016 32.8933C369.445 30.6664 372.083 30.1777 374.467 29.6498Z" fill="#3D76AC"/>
<path d="M32.3107 52.0876C32.472 52.1916 32.5749 52.2316 32.6801 52.3986C34.2525 54.8916 32.8451 65.2386 32.1838 68.2766C22.0645 69.8966 11.4758 70.0926 1.24839 70.8146L0.47499 70.6126C-0.76421 67.9616 0.736991 62.2696 1.40229 59.5316C12.1662 58.7136 22.5081 56.6946 32.3107 52.0876Z" fill="#3D76AC"/>
<path d="M17.1541 26.5477C23.8122 32.039 27.5431 38.8846 31.3605 46.4466C26.3778 48.8536 21.3734 50.5956 16.0354 52.0306C11.7207 52.9416 7.34597 53.3756 2.96387 53.8256C5.69897 43.5506 10.9688 35.0906 17.1541 26.5477Z" fill="#3D76AC"/>
<path d="M31.8806 13.4509C34.2024 14.7424 35.8521 18.6348 37.7874 20.6012C41.9025 24.7825 47.6483 27.7159 52.9164 30.1972C48.8553 33.9846 44.8133 37.6576 40.3347 40.9516L36.0755 43.6766C33.0448 35.1626 27.0385 28.6008 20.9888 22.1219C24.6132 19.1781 28.0216 16.1088 31.8806 13.4509Z" fill="#3D76AC"/>
<path d="M98.2014 105.317C102.182 108.098 105.69 111.716 109.421 114.836C113.784 118.483 118.454 121.705 123.126 124.936C120.094 126.86 117.234 129.621 114.386 131.85L113.091 132.729C111.074 132.806 104.367 128.497 101.911 127.442C98.3334 125.905 94.7084 124.887 90.9324 124.004C92.8434 117.528 94.5314 111.076 98.2014 105.317Z" fill="#3D76AC"/>
<path d="M64.9856 1.1397L68.5678 0.917603C66.1163 10.3454 61.7098 17.8579 56.4908 25.993C53.1184 23.8922 49.5831 21.9861 46.1543 19.9719C42.1799 17.3648 39.4529 13.9042 36.6892 10.1164C45.8401 5.455 54.8155 2.5302 64.9856 1.1397Z" fill="#3D76AC"/>
<path d="M52.0486 106.756C57.3939 110.931 61.7094 120.436 64.99 126.484C57.0401 129.811 50.6953 134.083 43.8892 139.332C39.4932 139.032 34.3918 134.801 30.8357 132.388C38.7681 124.597 45.2743 115.533 52.0486 106.756Z" fill="#3D76AC"/>
<path d="M72.3164 67.0106L72.6364 67.0676L72.7864 67.6296C68.3053 76.6186 57.8724 89.6736 51.8204 98.0686C48.3481 95.3326 44.9174 92.6446 41.1072 90.3876C38.0101 88.5066 35.0075 87.1226 31.5413 86.0506C33.3734 81.8559 35.1171 77.6249 36.7724 73.3576C48.7159 71.6486 60.5022 69.4416 72.3164 67.0106Z" fill="#3D76AC"/>
<path d="M126.378 25.3614C129.329 27.0687 133.184 34.2786 135.157 37.3736C123.234 44.5496 106.448 50.5706 93.2382 55.2196C90.6622 56.1606 87.9632 56.9006 85.3442 57.7216C90.0322 50.8936 92.4952 42.6226 96.5802 35.4396C107.448 34.4066 116.695 30.0586 126.378 25.3614Z" fill="#3D76AC"/>
<path d="M28.9221 90.7896C36.7126 93.1426 41.7066 98.5496 48.5659 102.291C42.6277 110.405 36.2406 118.148 29.4046 125.522L26.2521 129.07C23.7361 126.8 21.336 124.414 19.0516 121.912C16.7672 119.409 14.6093 116.802 12.5779 114.091C18.5753 106.564 23.7761 98.9086 28.9221 90.7896Z" fill="#3D76AC"/>
<path d="M58.3679 32.3239C64.121 33.6427 69.8563 34.8926 75.6693 35.9276C74.2263 43.7686 75.3373 52.3976 76.1163 60.2396C68.7646 62.3166 61.1069 63.7006 53.6258 65.2226C48.4585 65.9926 43.3038 66.8393 38.1617 67.7626C38.8811 61.6126 38.5529 55.3066 37.8503 49.1746C46.1115 44.9206 52.0106 38.9036 58.3679 32.3239Z" fill="#3D76AC"/>
<path d="M78.1422 69.9526C79.8832 73.1056 80.6442 77.0296 81.9782 80.3916C84.8112 87.5336 89.2802 94.2936 94.0322 100.292C90.6422 107.87 87.6152 115.194 85.5382 123.242C80.7902 123.544 76.1742 123.94 71.4712 124.693L70.6002 124.785C68.6113 123.594 67.0905 118.722 66.0582 116.625C63.4683 111.363 59.4443 106.62 55.875 101.987C63.7161 91.5356 70.7412 80.6906 78.1422 69.9526Z" fill="#3D76AC"/>
<path d="M137.192 42.6126L137.597 42.7566C140.171 45.4986 141.918 54.1426 142.912 57.8756C124.598 64.1836 107.395 79.5026 97.1322 95.6776L93.3272 90.0866C87.6892 83.1826 85.0442 72.8736 82.4812 64.4816C89.2882 61.7986 96.3752 60.0796 103.256 57.6316C114.824 53.5166 126.312 48.3066 137.192 42.6126Z" fill="#3D76AC"/>
<path d="M366.367 56.3746C371.249 56.1076 376.779 55.4286 381.502 56.8686C384.703 57.8436 387.166 59.9766 388.715 62.9396C389.587 64.6096 389.996 66.2846 390.192 68.1486C390.91 74.9936 391.169 114.42 389.673 119.133C388.602 119.469 386.88 119.414 385.73 119.511C381.325 120.552 375.004 119.514 370.473 119.249C371.716 116.699 371.287 83.5576 370.87 78.4646C370.732 76.7756 370.606 73.0366 369.204 71.8866C369.164 71.8546 369.124 71.8236 369.084 71.7916C367.36 70.3996 364.61 70.2256 362.491 69.9996C363.036 66.4666 363.55 60.0116 362.323 56.6666C363.67 56.6076 365.022 56.4746 366.367 56.3746Z" fill="#3D76AC"/>
<path d="M142.832 63.7956C143.181 63.6746 143.54 63.8376 143.881 63.9346C144.067 64.2966 144.207 64.6566 144.286 65.0576C144.885 68.0826 144.542 71.8806 144.468 74.9686C144.016 93.7626 137.549 105.571 127.124 120.681C122.46 117.532 117.87 114.278 113.355 110.919C108.904 107.403 104.873 103.632 100.902 99.5816C112.383 83.4016 124.133 71.4246 142.832 63.7956Z" fill="#3D76AC"/>
<path d="M328.902 27.2199C332.079 26.7812 335.826 26.6704 339.019 27.0504C341.431 27.3373 344.191 28.0479 345.527 30.258C348.878 35.8016 347.614 48.6526 347.558 55.1556L347.395 83.2816C347.374 88.3476 347.032 93.6426 347.529 98.6746C347.677 100.176 347.942 102.138 348.918 103.333C350.458 105.219 353.77 104.912 356.011 105.129C356.559 105.67 356.87 106.212 357.088 106.954C357.825 109.468 358.884 115.481 357.465 117.886C357.11 118.488 356.49 118.479 355.853 118.646C352.066 119.428 347.683 119.765 343.829 119.648C339.79 119.526 335.344 118.675 332.501 115.55C330.427 113.27 329.558 109.397 329.152 106.434C327.802 96.5836 328.491 85.9666 328.49 76.0216C328.488 59.7576 328.295 43.4766 328.902 27.2199Z" fill="#3D76AC"/>
<path d="M537.1 56.7236C545.131 56.3556 553.241 56.5526 561.281 56.5496C566.937 56.5476 572.815 56.2216 578.443 56.7216C578.476 56.7516 578.511 56.7796 578.544 56.8106C578.597 56.8616 578.648 56.9166 578.7 56.9696C579.034 57.3026 579.313 57.6366 579.548 58.0486C581.292 61.1016 582.261 66.3686 581.175 69.7736C579.445 75.1966 558.475 103.009 553.373 105.606C561.354 105.066 573.798 106.274 580.821 102.721C581.215 103.103 581.613 103.526 581.891 104.001C583.368 106.524 583.697 110.532 582.854 113.306C582.3 115.124 581.233 116.242 579.583 117.119C579.55 117.158 579.518 117.199 579.482 117.237C578.382 118.412 575.965 118.647 574.432 118.816C569.416 119.368 564.175 119.094 559.125 119.093C551.014 119.079 542.903 119.111 534.792 119.189C535.38 115.034 532.348 111.36 533.686 106.987C535.388 101.428 547.652 86.1666 551.923 81.1346C554.457 78.1506 557.408 75.3116 559.632 72.0946C560.085 71.4396 560.381 70.8616 560.423 70.0506C551.72 70.6166 543.015 70.7706 534.302 71.0936C536.209 68.1086 533.858 59.8556 535.652 57.1706C535.919 56.7696 536.637 56.7996 537.1 56.7236Z" fill="#3D76AC"/>
<path d="M615.49 54.9876C622.21 54.5496 629.305 56.2676 634.455 60.7486C639.696 65.3086 642.48 72.0696 642.946 78.9126C643.217 82.8786 643.539 90.9406 640.814 94.0526C629.846 94.0136 618.835 94.2146 607.874 94.0026C610.187 96.4436 609.419 100.698 611.87 103.241C614.153 105.611 618.065 106.169 621.194 106.161C624.812 106.15 633.238 105.065 635.878 102.418C636.935 103.058 637.614 103.943 638.277 104.965C639.143 106.301 640.382 108.567 640.034 110.181C640.52 110.61 641.021 111.279 641.134 111.925C641.274 112.723 641.16 113.401 640.651 114.057C637.4 118.244 626.77 120.127 621.55 120.657C613.792 121.446 605.277 120.262 599.086 115.162C592.678 109.884 590.168 101.726 589.433 93.7296C588.504 83.6196 589.736 71.8076 596.478 63.7566C601.612 57.6276 607.759 55.6696 615.49 54.9876ZM614.58 68.8716C608.374 72.5886 611.166 76.0336 608.054 80.6616L617.814 80.6416C620.124 80.6476 622.518 80.5206 624.816 80.6996C625.595 78.9316 625.321 75.9186 624.621 74.1546C623.733 71.9186 621.746 70.0606 619.521 69.1806C617.908 68.5426 616.262 68.6346 614.58 68.8716Z" fill="#3D76AC"/>
<path d="M495.966 55.3346C497.401 55.262 498.837 55.217 500.273 55.1996C506.092 55.1606 512.314 56.5936 516.551 60.8226C526.11 70.3666 521.269 90.3176 522.515 102.769C522.793 105.542 525.447 108.888 525.456 110.504C525.792 111.259 525.639 111.868 525.393 112.624C524.508 115.342 522.165 118.926 519.562 120.216C513.118 118.919 511.37 116.37 506.109 113.378L505.888 113.254C505.824 113.438 505.751 113.605 505.658 113.777C503.965 116.898 498.241 119.054 495.038 119.913C487.024 122.062 481.544 119.853 474.626 115.855C474.494 115.157 473.672 114.202 473.286 113.584C471.092 110.066 469.415 106.758 469.443 102.54C469.48 96.9346 470.988 91.2646 475.07 87.2526C482.418 80.0296 493.096 80.4126 502.643 80.4826C502.671 80.4336 502.701 80.3856 502.726 80.3346C503.435 78.9246 503.075 76.5436 502.607 75.0816C502.042 73.3196 501.021 71.9346 499.349 71.0906C493.071 67.9246 482.015 72.3596 475.664 74.3486C475.696 74.1846 475.717 74.0186 475.718 73.8506C475.72 73.3846 472.122 62.7636 471.667 61.7766C471.471 61.3526 471.152 61.0036 470.814 60.6866C474.638 60.1106 478.237 58.5456 481.974 57.5926C486.529 56.4306 491.315 55.9516 495.966 55.3346ZM494.079 92.8216C491.79 93.6876 490.14 94.7286 489.093 97.0666C488.218 99.0196 488.069 101.307 488.876 103.311C489.409 104.635 490.346 105.739 491.689 106.276C492.918 106.768 495.227 106.663 496.468 106.223C498.308 105.965 501.157 105.281 502.298 103.661C502.375 103.551 502.43 103.401 502.481 103.282C503.644 100.827 503.752 96.3156 502.883 93.7156C502.751 93.3206 502.524 92.9736 502.263 92.6536C499.532 92.6276 496.802 92.5606 494.079 92.8216Z" fill="#3D76AC"/>
<path d="M285.701 54.9876C293.147 54.6096 300.563 56.0426 306.452 60.8506C312.931 66.1416 316.074 74.3116 316.869 82.4576C317.84 92.4006 316.374 103.408 309.828 111.329C304.753 117.47 298.258 119.95 290.509 120.715C283.473 121.362 276.306 119.573 270.708 115.17C264.084 109.959 260.937 102.143 259.979 93.9636C258.821 84.0836 260.173 72.5926 266.53 64.5786C271.493 58.3236 277.98 55.8906 285.701 54.9876ZM285.916 69.5646C282.436 71.9156 280.841 74.1996 280.046 78.3636C278.686 85.4896 278.247 97.6616 282.448 103.828C283.352 105.154 284.521 106.127 286.129 106.427C286.754 106.547 287.384 106.589 288.018 106.552C288.653 106.514 289.273 106.399 289.879 106.206C291.846 105.91 292.972 105.281 294.162 103.655C298.547 97.6636 297.987 86.4656 296.841 79.3656C296.304 76.0296 295.229 72.4556 292.331 70.4126C290.446 69.0836 288.258 69.1226 286.072 69.5326C286.02 69.5426 285.968 69.5536 285.916 69.5646Z" fill="#3D76AC"/>
<path d="M440.965 26.873C443.051 26.7432 445.22 26.7135 447.306 26.8392C450.037 27.0038 453.485 27.4206 455.367 29.6484C460.189 35.3596 456.648 89.2716 457.267 100.382C457.447 103.611 460.425 109.315 460.349 110.279C460.59 111.377 460.291 112.402 459.902 113.431C458.84 116.245 456.86 118.942 454.084 120.212C447.546 118.508 446.653 117.255 441.593 113.126L441.461 113.02C441.42 113.074 441.38 113.129 441.339 113.182C437.619 117.978 431.376 119.951 425.603 120.727C421.656 121.409 417.039 120.31 413.695 118.152C407.745 114.312 404.574 107.072 403.15 100.385C400.797 89.3316 401.702 75.7406 407.992 66.1446C411.251 61.1726 416.392 57.2356 422.27 56.0246C426.543 55.1446 434.376 55.4136 438.073 57.8556C440.968 53.8656 436.549 31.4586 439.264 27.4844C439.625 26.9558 440.357 26.9903 440.965 26.873ZM427.497 70.2596C426.059 71.8046 424.477 73.4266 423.586 75.3706C421.7 79.4866 421.728 86.3396 421.893 90.9306C422.035 94.9146 422.793 101.323 425.889 104.221C426.946 105.21 428.061 105.405 429.471 105.335C430.165 105.301 431.299 105.204 431.891 104.816C434.046 104.383 436.444 103.376 437.726 101.483C437.877 101.259 438.012 101.022 438.049 100.751C439.071 98.3516 439.616 76.3946 438.626 73.8926C438.509 73.5976 438.351 73.3026 438.156 73.0516C436.906 71.3556 434.064 70.5286 432.063 70.2226C430.563 69.9926 428.993 69.9806 427.497 70.2596Z" fill="#3D76AC"/>
<path d="M181.997 33.0632C187.772 32.7388 193.42 32.9614 199.191 33.3208L198.947 66.7006C207.932 66.6866 217.328 66.0936 226.261 66.8536C226.058 55.6969 225.98 44.5397 226.027 33.3818C232.473 32.9937 238.705 32.8146 245.143 33.4118C245.27 33.5757 245.369 33.7326 245.462 33.9186C246.126 35.2346 245.99 37.4976 246.043 38.9776C246.331 47.0406 247.218 114.086 245.488 119.179C244.476 119.558 242.279 119.363 241.136 119.396C236.112 119.556 231.092 119.472 226.076 119.145L226.256 83.2566L198.924 83.2016L199.089 119.292C192.439 119.48 185.825 119.623 179.18 119.178L179.19 60.0006C179.197 52.1436 178.465 41.5086 179.277 33.9686C180.156 33.1987 180.882 33.2364 181.997 33.0632Z" fill="#3D76AC"/>
</svg>
